<?xml version="1.0" standalone="no"?>
<!DOCTYPE svg PUBLIC "-//W3C//DTD SVG 20010904//EN"
 "http://www.w3.org/TR/2001/REC-SVG-20010904/DTD/svg10.dtd">
<svg version="1.0" xmlns="http://www.w3.org/2000/svg"
 width="63.000000pt" height="63.000000pt" viewBox="0 0 63.000000 63.000000"
 preserveAspectRatio="xMidYMid meet">
<metadata>
Created by potrace 1.13, written by Peter Selinger 2001-2015
</metadata>
<g transform="translate(0.000000,63.000000) scale(0.100000,-0.100000)"
fill="#000000" stroke="none">
<path d="M213 612 c-264 -94 -286 -456 -35 -579 48 -24 70 -28 137 -28 67 0
89 4 137 28 65 32 121 90 151 156 30 65 30 187 0 252 -67 148 -241 224 -390
171z m213 -70 c90 -47 138 -126 138 -227 0 -101 -47 -179 -139 -228 -56 -30
-164 -30 -220 0 -92 49 -139 127 -139 228 0 118 67 208 184 246 40 13 133 3
176 -19z"/>
</g>
</svg>
