<?xml version="1.0" standalone="no"?>
<!DOCTYPE svg PUBLIC "-//W3C//DTD SVG 20010904//EN"
 "http://www.w3.org/TR/2001/REC-SVG-20010904/DTD/svg10.dtd">
<svg version="1.0" xmlns="http://www.w3.org/2000/svg"
 width="486.000000pt" height="168.000000pt" viewBox="0 0 486.000000 168.000000"
 preserveAspectRatio="xMidYMid meet">
<metadata>
Created by potrace 1.10, written by Peter Selinger 2001-2011
</metadata>
<g transform="translate(0.000000,168.000000) scale(0.100000,-0.100000)"
fill="#000000" stroke="none">
<path d="M0 840 l0 -840 835 0 835 0 0 840 0 840 -835 0 -835 0 0 -840z m498
273 l2 -373 238 -2 237 -3 3 -204 c1 -113 -1 -208 -6 -213 -10 -10 -777 -12
-792 -3 -11 7 -14 1158 -3 1169 4 3 77 5 162 4 l156 -3 3 -372z m992 -358 l0
-585 -162 2 -163 3 -3 373 -2 372 -240 0 -240 0 0 210 0 210 405 0 405 0 0
-585z"/>
<path d="M2052 1318 l3 -363 100 0 100 0 3 128 c2 110 5 128 18 125 9 -2 26
-31 39 -68 13 -36 34 -92 48 -125 l25 -60 104 0 103 0 3 363 2 362 -105 0
-105 0 0 -144 c0 -87 -4 -147 -10 -151 -6 -3 -13 2 -16 12 -6 18 -66 162 -100
241 l-19 42 -97 0 -98 0 2 -362z"/>
<path d="M2940 1665 c0 -8 -3 -14 -7 -14 -25 5 -76 -18 -111 -49 -39 -34 -43
-42 -53 -112 -16 -107 -7 -386 14 -426 19 -37 71 -78 112 -89 17 -4 37 -10 45
-13 30 -10 192 -13 203 -4 7 5 29 12 50 16 25 5 53 21 81 49 56 53 59 73 54
332 l-3 197 -49 44 c-33 30 -60 46 -87 50 -23 4 -39 12 -39 20 0 11 -23 14
-105 14 -87 0 -105 -3 -105 -15z m135 -355 l0 -235 -26 -3 c-37 -4 -39 9 -39
241 0 211 5 240 43 235 22 -3 22 -4 22 -238z"/>
<path d="M2171 695 c-18 -8 -41 -15 -50 -15 -19 0 -62 -42 -80 -77 -19 -37
-14 -141 9 -178 26 -42 51 -59 186 -130 42 -21 87 -52 100 -68 43 -52 22 -122
-35 -115 -25 3 -26 6 -31 73 l-5 70 -109 3 c-125 3 -128 1 -121 -69 14 -141
86 -189 280 -189 119 1 178 13 222 46 57 43 72 149 35 245 -14 37 -71 79 -189
139 -110 57 -133 82 -117 128 7 21 16 27 39 27 27 0 30 -3 35 -40 l5 -40 110
0 110 0 3 39 c7 79 -30 121 -130 150 -71 20 -220 21 -267 1z"/>
<path d="M2928 704 c-4 -3 -12 -7 -20 -8 -81 -16 -140 -59 -160 -114 -9 -26
-13 -98 -13 -242 0 -228 5 -247 67 -292 51 -36 89 -45 195 -47 139 -3 195 11
248 63 55 52 58 72 53 331 l-3 197 -49 44 c-33 30 -60 46 -87 50 -22 4 -42 11
-45 15 -6 10 -177 13 -186 3z m117 -354 l0 -235 -26 -3 c-37 -4 -39 9 -39 241
0 211 5 240 43 235 22 -3 22 -4 22 -238z"/>
<path d="M3676 701 c-3 -4 -25 -11 -48 -15 -26 -4 -58 -20 -84 -42 -58 -47
-67 -95 -62 -323 3 -156 6 -181 25 -221 36 -73 108 -100 271 -100 125 0 172
13 227 65 35 33 45 50 55 97 6 32 10 72 8 90 l-3 33 -114 3 c-69 2 -118 -1
-125 -8 -5 -5 -9 -33 -7 -61 3 -67 -14 -109 -45 -109 -38 0 -44 34 -44 240 0
208 6 240 45 240 33 0 47 -35 44 -107 -2 -30 2 -58 8 -64 6 -6 56 -9 124 -7
l114 3 3 49 c5 69 -24 152 -63 183 -50 40 -137 63 -237 63 -48 0 -89 -4 -92
-9z"/>
<path d="M4247 704 c-4 -4 -7 -164 -7 -356 l0 -348 120 0 119 0 3 117 c3 121
17 156 37 91 13 -45 35 -104 60 -160 l20 -48 116 0 c63 0 115 3 115 6 0 3 -9
26 -19 52 -11 26 -40 101 -66 167 -25 66 -50 128 -56 137 -12 22 -12 44 0 66
22 39 131 270 131 276 0 4 -46 5 -101 4 l-102 -3 -48 -93 c-26 -52 -49 -101
-51 -110 -2 -10 -10 -17 -18 -17 -12 0 -16 22 -20 110 l-5 110 -111 3 c-60 1
-113 -1 -117 -4z"/>
</g>
</svg>
